<svg width="33" height="35" viewBox="0 0 33 35" fill="none" xmlns="http://www.w3.org/2000/svg">
<path d="M17.9546 27L11.8154 6.81234H16.4889L21.3561 23.8474L20.3052 23.322H23.126L22.0198 23.8474L26.5275 6.81234H31.0628L25.3383 27H17.9546Z" fill="#7291F9"/>
<path d="M6.13926 27.1383V23.5985H10.8681C11.7162 23.5985 12.3523 23.3773 12.7763 22.9348C13.2003 22.4923 13.4123 21.8655 13.4123 21.0543C13.4123 20.2431 13.2003 19.6255 12.7763 19.2015C12.3523 18.759 11.7162 18.5378 10.8681 18.5378H6.13926V15.8H10.6469C12.0481 15.8 13.2925 15.9751 14.3802 16.3254C15.468 16.6573 16.3253 17.2012 16.9521 17.957C17.5789 18.7129 17.8923 19.7361 17.8923 21.0267V21.4138C17.8923 22.6122 17.6158 23.6446 17.0627 24.5111C16.5096 25.3592 15.6984 26.0137 14.6291 26.4746C13.5598 26.917 12.2324 27.1383 10.6469 27.1383H6.13926ZM2.26765 27.1383V6.64642H6.69235V27.1383H2.26765ZM6.13926 17.8188V15.1086H10.1215C10.988 15.1086 11.6148 14.8874 12.002 14.4449C12.3891 14.0025 12.5827 13.4125 12.5827 12.6751C12.5827 11.9007 12.3891 11.2923 12.002 10.8499C11.6148 10.4074 10.988 10.1862 10.1215 10.1862H6.13926V6.64642H9.84494C12.1679 6.64642 13.947 7.13498 15.1822 8.1121C16.4359 9.08922 17.0627 10.4812 17.0627 12.2879V12.7027C17.0627 13.9564 16.7401 14.9612 16.0948 15.717C15.468 16.4729 14.6107 17.0168 13.523 17.3486C12.4537 17.6621 11.2277 17.8188 9.84494 17.8188H6.13926Z" fill="white"/>
<path d="M17.9546 27L11.8154 6.81234H16.4889L21.3561 23.8474L20.3052 23.322H23.126L22.0198 23.8474L26.5275 6.81234H31.0628L25.3383 27H17.9546Z" fill="#7291F9"/>
<path d="M6.13926 27.1383V23.5985H10.8681C11.7162 23.5985 12.3523 23.3773 12.7763 22.9348C13.2003 22.4923 13.4123 21.8655 13.4123 21.0543C13.4123 20.2431 13.2003 19.6255 12.7763 19.2015C12.3523 18.759 11.7162 18.5378 10.8681 18.5378H6.13926V15.8H10.6469C12.0481 15.8 13.2925 15.9751 14.3802 16.3254C15.468 16.6573 16.3253 17.2012 16.9521 17.957C17.5789 18.7129 17.8923 19.7361 17.8923 21.0267V21.4138C17.8923 22.6122 17.6158 23.6446 17.0627 24.5111C16.5096 25.3592 15.6984 26.0137 14.6291 26.4746C13.5598 26.917 12.2324 27.1383 10.6469 27.1383H6.13926ZM2.26765 27.1383V6.64642H6.69235V27.1383H2.26765ZM6.13926 17.8188V15.1086H10.1215C10.988 15.1086 11.6148 14.8874 12.002 14.4449C12.3891 14.0025 12.5827 13.4125 12.5827 12.6751C12.5827 11.9007 12.3891 11.2923 12.002 10.8499C11.6148 10.4074 10.988 10.1862 10.1215 10.1862H6.13926V6.64642H9.84494C12.1679 6.64642 13.947 7.13498 15.1822 8.1121C16.4359 9.08922 17.0627 10.4812 17.0627 12.2879V12.7027C17.0627 13.9564 16.7401 14.9612 16.0948 15.717C15.468 16.4729 14.6107 17.0168 13.523 17.3486C12.4537 17.6621 11.2277 17.8188 9.84494 17.8188H6.13926Z" fill="white"/>
</svg>
