<svg width="107" height="41" viewBox="0 0 107 41" fill="none" xmlns="http://www.w3.org/2000/svg">
<path d="M33.517 27.021V25.2325H35.9063C36.3348 25.2325 36.6561 25.1208 36.8704 24.8972C37.0846 24.6736 37.1918 24.3569 37.1918 23.9471C37.1918 23.5372 37.0846 23.2251 36.8704 23.0109C36.6561 22.7873 36.3348 22.6756 35.9063 22.6756H33.517V21.2923H35.7945C36.5024 21.2923 37.1312 21.3808 37.6808 21.5577C38.2304 21.7254 38.6635 22.0002 38.9802 22.3821C39.297 22.764 39.4553 23.281 39.4553 23.9331V24.1287C39.4553 24.7342 39.3156 25.2558 39.0361 25.6936C38.7567 26.1221 38.3468 26.4528 37.8065 26.6857C37.2663 26.9093 36.5956 27.021 35.7945 27.021H33.517ZM31.5608 27.021V16.6673H33.7964V27.021H31.5608ZM33.517 22.3123V20.943H35.529C35.9668 20.943 36.2835 20.8312 36.4791 20.6076C36.6748 20.384 36.7726 20.086 36.7726 19.7134C36.7726 19.3221 36.6748 19.0147 36.4791 18.7912C36.2835 18.5676 35.9668 18.4558 35.529 18.4558H33.517V16.6673H35.3893C36.563 16.6673 37.4619 16.9142 38.086 17.4079C38.7194 17.9016 39.0361 18.6049 39.0361 19.5177V19.7273C39.0361 20.3608 38.8731 20.8684 38.5471 21.2503C38.2304 21.6323 37.7972 21.9071 37.2476 22.0747C36.7074 22.2331 36.0879 22.3123 35.3893 22.3123H33.517ZM45.7344 26.9512V24.6876H45.3571V22.2284C45.3571 21.8372 45.2639 21.5438 45.0776 21.3482C44.8913 21.1525 44.5933 21.0547 44.1834 21.0547C43.9785 21.0547 43.7083 21.0594 43.373 21.0687C43.0376 21.078 42.693 21.092 42.339 21.1106C41.985 21.1293 41.6637 21.1479 41.3749 21.1665V19.2802C41.5892 19.2616 41.8407 19.243 42.1294 19.2243C42.4182 19.2057 42.7163 19.1917 43.0237 19.1824C43.3311 19.1731 43.6198 19.1684 43.89 19.1684C44.6724 19.1684 45.3292 19.2802 45.8601 19.5038C46.4004 19.7273 46.8103 20.0673 47.0897 20.5238C47.3692 20.9709 47.5089 21.5484 47.5089 22.2564V26.9512H45.7344ZM43.2892 27.1468C42.7396 27.1468 42.2552 27.049 41.836 26.8534C41.4261 26.6577 41.1048 26.3783 40.8719 26.015C40.639 25.6424 40.5226 25.1999 40.5226 24.6876C40.5226 24.1287 40.667 23.6723 40.9557 23.3183C41.2445 22.955 41.6497 22.6895 42.1713 22.5219C42.693 22.3449 43.2938 22.2564 43.9738 22.2564H45.6086V23.4999H43.9598C43.5686 23.4999 43.2659 23.5977 43.0516 23.7934C42.8467 23.9797 42.7442 24.2358 42.7442 24.5619C42.7442 24.8693 42.8467 25.1208 43.0516 25.3164C43.2659 25.5027 43.5686 25.5958 43.9598 25.5958C44.2113 25.5958 44.4349 25.5539 44.6305 25.4701C44.8355 25.3769 45.0031 25.2232 45.1335 25.009C45.2639 24.7947 45.3385 24.4967 45.3571 24.1147L45.8881 24.6736C45.8415 25.2046 45.7111 25.6517 45.4968 26.015C45.2919 26.3783 45.0031 26.6577 44.6305 26.8534C44.2672 27.049 43.8201 27.1468 43.2892 27.1468ZM49.4057 26.9512V19.2942H51.1802V22.5777H51.1383C51.1383 21.4972 51.3665 20.6635 51.8229 20.0767C52.2887 19.4898 52.9594 19.1964 53.835 19.1964H54.1284V21.1246H53.5695C52.9547 21.1246 52.4796 21.2923 52.1443 21.6276C51.8089 21.9536 51.6413 22.4287 51.6413 23.0528V26.9512H49.4057ZM55.2867 26.9512V19.2942H57.0612V22.5777H57.0193C57.0193 21.4972 57.2475 20.6635 57.704 20.0767C58.1697 19.4898 58.8404 19.1964 59.716 19.1964H60.0094V21.1246H59.4505C58.8357 21.1246 58.3607 21.2923 58.0253 21.6276C57.69 21.9536 57.5223 22.4287 57.5223 23.0528V26.9512H55.2867ZM61.531 26.9512V19.2942H63.7667V26.9512H61.531ZM60.511 20.943V19.2942H63.7667V20.943H60.511ZM62.3973 18.5397C61.9782 18.5397 61.6661 18.4325 61.4612 18.2183C61.2656 17.9947 61.1678 17.7153 61.1678 17.3799C61.1678 17.0353 61.2656 16.7558 61.4612 16.5416C61.6661 16.318 61.9782 16.2062 62.3973 16.2062C62.8165 16.2062 63.1239 16.318 63.3195 16.5416C63.5245 16.7558 63.6269 17.0353 63.6269 17.3799C63.6269 17.7153 63.5245 17.9947 63.3195 18.2183C63.1239 18.4325 62.8165 18.5397 62.3973 18.5397ZM68.7407 27.1887C67.6508 27.1887 66.7985 26.9651 66.1837 26.518C65.5689 26.0709 65.2429 25.4421 65.2056 24.6317H67.1897C67.227 24.8739 67.3714 25.0928 67.6229 25.2884C67.8837 25.4747 68.2703 25.5679 68.7826 25.5679C69.1738 25.5679 69.4952 25.5027 69.7467 25.3723C70.0075 25.2325 70.1379 25.0369 70.1379 24.7854C70.1379 24.5619 70.0401 24.3849 69.8445 24.2545C69.6489 24.1147 69.2996 24.0169 68.7966 23.961L68.1958 23.9051C67.2736 23.812 66.5796 23.5558 66.1138 23.1367C65.6574 22.7175 65.4292 22.1819 65.4292 21.5298C65.4292 20.9895 65.5642 20.5377 65.8344 20.1745C66.1045 19.8112 66.4771 19.5364 66.9522 19.3501C67.4366 19.1638 67.9862 19.0706 68.601 19.0706C69.5884 19.0706 70.3848 19.2895 70.9903 19.7273C71.5958 20.1558 71.9125 20.7799 71.9404 21.5997H69.9563C69.919 21.3482 69.7886 21.1386 69.5651 20.9709C69.3415 20.7939 69.0108 20.7054 68.573 20.7054C68.2284 20.7054 67.9536 20.7706 67.7486 20.901C67.5437 21.0314 67.4412 21.2084 67.4412 21.432C67.4412 21.6462 67.5297 21.8093 67.7067 21.921C67.8837 22.0328 68.1725 22.112 68.573 22.1586L69.1738 22.2145C70.1147 22.3169 70.8459 22.5777 71.3675 22.9969C71.8892 23.4161 72.15 23.9797 72.15 24.6876C72.15 25.1999 72.0103 25.6471 71.7308 26.029C71.4514 26.4016 71.0555 26.6903 70.5432 26.8953C70.0308 27.0909 69.43 27.1887 68.7407 27.1887ZM78.9075 26.9512L75.8056 16.7512H78.167L80.6261 25.3583L80.0952 25.0928H81.5204L80.9615 25.3583L83.239 16.7512H85.5305L82.6382 26.9512H78.9075ZM87.0065 26.9512V19.2942H89.2421V26.9512H87.0065ZM85.9865 20.943V19.2942H89.2421V20.943H85.9865ZM87.8728 18.5397C87.4536 18.5397 87.1415 18.4325 86.9366 18.2183C86.741 17.9947 86.6432 17.7153 86.6432 17.3799C86.6432 17.0353 86.741 16.7558 86.9366 16.5416C87.1415 16.318 87.4536 16.2062 87.8728 16.2062C88.292 16.2062 88.5994 16.318 88.795 16.5416C88.9999 16.7558 89.1024 17.0353 89.1024 17.3799C89.1024 17.7153 88.9999 17.9947 88.795 18.2183C88.5994 18.4325 88.292 18.5397 87.8728 18.5397ZM93.8948 27.1887C93.0098 27.1887 92.3298 26.9046 91.8548 26.3364C91.3797 25.7588 91.1422 24.8925 91.1422 23.7375V19.2942H93.3778V23.8493C93.3778 24.2591 93.4942 24.5851 93.7271 24.8273C93.96 25.0695 94.272 25.1906 94.6632 25.1906C95.0638 25.1906 95.3898 25.0649 95.6413 24.8134C95.8928 24.5619 96.0186 24.2219 96.0186 23.7934V19.2942H98.2542V26.9512H96.4797V23.7235H96.6334C96.6334 24.4967 96.5309 25.144 96.326 25.6657C96.1304 26.178 95.8369 26.5599 95.4457 26.8114C95.0545 27.063 94.5701 27.1887 93.9926 27.1887H93.8948ZM103.222 27.1887C102.132 27.1887 101.28 26.9651 100.665 26.518C100.05 26.0709 99.7241 25.4421 99.6868 24.6317H101.671C101.708 24.8739 101.853 25.0928 102.104 25.2884C102.365 25.4747 102.751 25.5679 103.264 25.5679C103.655 25.5679 103.976 25.5027 104.228 25.3723C104.489 25.2325 104.619 25.0369 104.619 24.7854C104.619 24.5619 104.521 24.3849 104.326 24.2545C104.13 24.1147 103.781 24.0169 103.278 23.961L102.677 23.9051C101.755 23.812 101.061 23.5558 100.595 23.1367C100.139 22.7175 99.9104 22.1819 99.9104 21.5298C99.9104 20.9895 100.045 20.5377 100.316 20.1745C100.586 19.8112 100.958 19.5364 101.433 19.3501C101.918 19.1638 102.467 19.0706 103.082 19.0706C104.07 19.0706 104.866 19.2895 105.471 19.7273C106.077 20.1558 106.394 20.7799 106.422 21.5997H104.438C104.4 21.3482 104.27 21.1386 104.046 20.9709C103.823 20.7939 103.492 20.7054 103.054 20.7054C102.71 20.7054 102.435 20.7706 102.23 20.901C102.025 21.0314 101.922 21.2084 101.922 21.432C101.922 21.6462 102.011 21.8093 102.188 21.921C102.365 22.0328 102.654 22.112 103.054 22.1586L103.655 22.2145C104.596 22.3169 105.327 22.5777 105.849 22.9969C106.37 23.4161 106.631 23.9797 106.631 24.6876C106.631 25.1999 106.491 25.6471 106.212 26.029C105.933 26.4016 105.537 26.6903 105.024 26.8953C104.512 27.0909 103.911 27.1887 103.222 27.1887Z" fill="#F2F7FC"/>
<path d="M17.9544 27L11.8151 6.81234H16.4887L21.3559 23.8474L20.305 23.322H23.1257L22.0196 23.8474L26.5272 6.81234H31.0625L25.3381 27H17.9544Z" fill="#7291F9"/>
<path d="M6.13926 27.1383V23.5985H10.8681C11.7162 23.5985 12.3523 23.3773 12.7763 22.9348C13.2003 22.4923 13.4123 21.8655 13.4123 21.0543C13.4123 20.2431 13.2003 19.6255 12.7763 19.2015C12.3523 18.759 11.7162 18.5378 10.8681 18.5378H6.13926V15.8H10.6469C12.0481 15.8 13.2925 15.9751 14.3802 16.3254C15.468 16.6573 16.3253 17.2012 16.9521 17.957C17.5789 18.7129 17.8923 19.7361 17.8923 21.0267V21.4138C17.8923 22.6122 17.6158 23.6446 17.0627 24.5111C16.5096 25.3592 15.6984 26.0137 14.6291 26.4746C13.5598 26.917 12.2324 27.1383 10.6469 27.1383H6.13926ZM2.26765 27.1383V6.64642H6.69235V27.1383H2.26765ZM6.13926 17.8188V15.1086H10.1215C10.988 15.1086 11.6148 14.8874 12.002 14.4449C12.3891 14.0025 12.5827 13.4125 12.5827 12.6751C12.5827 11.9007 12.3891 11.2923 12.002 10.8499C11.6148 10.4074 10.988 10.1862 10.1215 10.1862H6.13926V6.64642H9.84494C12.1679 6.64642 13.947 7.13498 15.1822 8.1121C16.4359 9.08922 17.0627 10.4812 17.0627 12.2879V12.7027C17.0627 13.9564 16.7401 14.9612 16.0948 15.717C15.468 16.4729 14.6107 17.0168 13.523 17.3486C12.4537 17.6621 11.2277 17.8188 9.84494 17.8188H6.13926Z" fill="white"/>
<path d="M17.9544 27L11.8151 6.81234H16.4887L21.3559 23.8474L20.305 23.322H23.1257L22.0196 23.8474L26.5272 6.81234H31.0625L25.3381 27H17.9544Z" fill="#7291F9"/>
<path d="M6.13926 27.1383V23.5985H10.8681C11.7162 23.5985 12.3523 23.3773 12.7763 22.9348C13.2003 22.4923 13.4123 21.8655 13.4123 21.0543C13.4123 20.2431 13.2003 19.6255 12.7763 19.2015C12.3523 18.759 11.7162 18.5378 10.8681 18.5378H6.13926V15.8H10.6469C12.0481 15.8 13.2925 15.9751 14.3802 16.3254C15.468 16.6573 16.3253 17.2012 16.9521 17.957C17.5789 18.7129 17.8923 19.7361 17.8923 21.0267V21.4138C17.8923 22.6122 17.6158 23.6446 17.0627 24.5111C16.5096 25.3592 15.6984 26.0137 14.6291 26.4746C13.5598 26.917 12.2324 27.1383 10.6469 27.1383H6.13926ZM2.26765 27.1383V6.64642H6.69235V27.1383H2.26765ZM6.13926 17.8188V15.1086H10.1215C10.988 15.1086 11.6148 14.8874 12.002 14.4449C12.3891 14.0025 12.5827 13.4125 12.5827 12.6751C12.5827 11.9007 12.3891 11.2923 12.002 10.8499C11.6148 10.4074 10.988 10.1862 10.1215 10.1862H6.13926V6.64642H9.84494C12.1679 6.64642 13.947 7.13498 15.1822 8.1121C16.4359 9.08922 17.0627 10.4812 17.0627 12.2879V12.7027C17.0627 13.9564 16.7401 14.9612 16.0948 15.717C15.468 16.4729 14.6107 17.0168 13.523 17.3486C12.4537 17.6621 11.2277 17.8188 9.84494 17.8188H6.13926Z" fill="white"/>
</svg>
